<svg xmlns="http://www.w3.org/2000/svg" width="28" height="28" fill="none" viewBox="0 0 28 28">
  <path fill="#285DF5" d="M18.107 11.834a2.533 2.533 0 0 1 2.534 2.533 2.52 2.52 0 0 1-.876 1.913c-.323.279-.585.652-.585 1.079v2.115c0 .427.262.8.585 1.08a2.533 2.533 0 1 1-3.313-.001c.323-.28.585-.653.585-1.08V17.36c0-.427-.262-.8-.585-1.08a2.521 2.521 0 0 1-.878-1.913 2.533 2.533 0 0 1 2.533-2.533ZM5.607 7.8a2.534 2.534 0 0 1 2.534 2.533c0 .765-.34 1.45-.878 1.913-.323.28-.585.653-.585 1.08v2.447c0 .427.262.8.585 1.08.086.074.168.155.243.24.279.318.649.574 1.07.574h2.277c.422 0 .792-.256 1.07-.573a2.52 2.52 0 0 1 1.9-.86 2.533 2.533 0 0 1 0 5.066 2.521 2.521 0 0 1-1.9-.86c-.278-.317-.648-.573-1.07-.573H8.577c-.422 0-.792.256-1.07.573a2.533 2.533 0 1 1-3.556-3.587c.322-.279.584-.652.584-1.079v-2.45c0-.426-.262-.8-.585-1.079a2.52 2.52 0 0 1-.876-1.912A2.534 2.534 0 0 1 5.607 7.8Zm16.786-.366a2.533 2.533 0 0 1 2.533 2.533 2.52 2.52 0 0 1-.876 1.912c-.323.28-.585.652-.585 1.08v2.45c0 .426.262.799.585 1.078.536.464.876 1.149.876 1.913a2.534 2.534 0 0 1-5.067 0c0-.765.34-1.45.878-1.914.323-.28.585-.652.585-1.08V12.96c0-.427-.262-.8-.585-1.08a2.554 2.554 0 0 1-.243-.24c-.279-.317-.649-.574-1.07-.574h-2.275c-.422 0-.792.257-1.07.574a2.521 2.521 0 0 1-1.9.86 2.533 2.533 0 0 1 0-5.066 2.52 2.52 0 0 1 1.9.86c.278.317.648.573 1.07.573h2.274c.422 0 .792-.256 1.07-.573a2.52 2.52 0 0 1 1.9-.86ZM9.893 3a2.52 2.52 0 0 1 1.916.88c.28.324.653.587 1.08.587h2.25c.421 0 .79-.257 1.07-.573a2.521 2.521 0 0 1 1.898-.86 2.534 2.534 0 0 1 0 5.066 2.521 2.521 0 0 1-1.898-.86c-.28-.317-.649-.573-1.07-.573h-2.305c-.416 0-.782.25-1.06.559-.07.077-.145.15-.225.22-.322.279-.584.652-.584 1.078v2.85c0 .427.262.8.585 1.079a2.533 2.533 0 1 1-3.313-.001c.323-.28.585-.653.585-1.08V8.526c0-.427-.262-.8-.585-1.08a2.52 2.52 0 0 1-.878-1.913A2.533 2.533 0 0 1 9.893 3ZM2.06 12.558a1.81 1.81 0 1 1-.001 3.62 1.81 1.81 0 0 1 0-3.62Zm23.88 0a1.81 1.81 0 1 1 0 3.62 1.81 1.81 0 0 1 0-3.62Z"/>
</svg>
