<svg xmlns="http://www.w3.org/2000/svg" width="48" height="48" fill="none" viewBox="0 0 48 48">
  <circle cx="24" cy="24" r="23.25" fill="#EEEEF0" stroke="#D9D9DE" stroke-width="1.5"/>
  <path fill="#fff" d="M17.73 15.75c3.937 0 6.27 1.038 6.27 1.038V32.25s-2.333-1.038-6.27-1.038c-3.938 0-5.98 1.038-5.98 1.038V16.788s2.042-1.038 5.98-1.038Zm12.25 0c3.937 0 6.27 1.038 6.27 1.038V32.25s-2.333-1.038-6.27-1.038c-3.938 0-5.98 1.038-5.98 1.038V16.788s2.042-1.038 5.98-1.038Z"/>
  <path stroke="#92939E" stroke-linejoin="round" stroke-width="1.5" d="M24 16.788s-2.333-1.038-6.27-1.038c-3.938 0-5.98 1.038-5.98 1.038V32.25s2.042-1.038 5.98-1.038c3.937 0 6.27 1.038 6.27 1.038m0-15.462V32.25m0-15.462s2.042-1.038 5.98-1.038c3.937 0 6.27 1.038 6.27 1.038V32.25s-2.333-1.038-6.27-1.038c-3.938 0-5.98 1.038-5.98 1.038"/>
</svg>
