<svg xmlns="http://www.w3.org/2000/svg" width="117" height="20" fill="none" viewBox="0 0 117 20">
  <g clip-path="url(#a)">
    <path fill="#285DF5" d="M112.324 16.709c-.832 0-1.565-.202-2.198-.605-.633-.403-1.123-.963-1.471-1.681-.347-.73-.521-1.574-.521-2.531 0-.958.174-1.795.521-2.513.348-.718.838-1.272 1.471-1.662.633-.403 1.366-.605 2.198-.605.819 0 1.533.202 2.141.605.608.39 1.08.944 1.415 1.662.348.718.522 1.555.522 2.513 0 .957-.174 1.8-.522 2.531-.335.718-.807 1.278-1.415 1.681s-1.322.605-2.141.605Zm.279-1.625c.77 0 1.384-.29 1.844-.869.471-.58.707-1.347.707-2.305 0-.957-.236-1.725-.707-2.304-.46-.58-1.074-.87-1.844-.87s-1.39.29-1.862.87c-.472.579-.708 1.341-.708 2.286 0 .957.236 1.731.708 2.323.472.58 1.092.87 1.862.87Zm2.905 1.436-.447-1.851h.186V9.416h-.186V3.655s0-.945.931-.945.931.945.931.945V16.52h-1.415Zm-9.246 0H104.4V7.3h1.862v9.219Zm-2.141-12.053c0-.365.105-.66.316-.888.224-.239.522-.359.894-.359.36 0 .652.12.875.36.224.226.336.522.336.887 0 .353-.112.649-.336.888-.223.227-.515.34-.875.34-.372 0-.67-.113-.894-.34a1.294 1.294 0 0 1-.316-.888Zm-4.762 2.834.447 2.494v6.725h-1.862V7.301h1.415Zm.168 3.268-.447-.207v-1.38l.167-.207c.124-.227.317-.466.578-.718.273-.265.589-.485.949-.661a2.34 2.34 0 0 1 1.099-.284c.186 0 .36.013.521.038a.89.89 0 0 1 .391.132v1.7h-.577c-.844 0-1.459.133-1.843.397-.385.252-.664.649-.838 1.19ZM90.17 16.71c-1.28 0-2.403-.284-3.371-.851a6.06 6.06 0 0 1-2.235-2.361c-.534-1.008-.8-2.141-.8-3.4 0-.958.16-1.84.483-2.646a6.424 6.424 0 0 1 1.341-2.097 6.266 6.266 0 0 1 2.03-1.379 6.54 6.54 0 0 1 2.551-.49c1.44 0 2.62.301 3.538.906.919.592 1.67 1.392 2.253 2.4l-1.825.547c-.57-.793-1.185-1.329-1.843-1.606a5.125 5.125 0 0 0-2.123-.434c-.856 0-1.626.208-2.309.623a4.554 4.554 0 0 0-1.602 1.7c-.397.718-.595 1.543-.595 2.475 0 .92.198 1.744.596 2.475a4.553 4.553 0 0 0 1.601 1.7c.683.416 1.453.623 2.31.623.818 0 1.563-.182 2.234-.547a4.335 4.335 0 0 0 1.62-1.53c.397-.643.596-1.373.596-2.192l.279 1.096h-4.842V9.946h6.22c.037.126.062.27.074.434.025.164.038.322.038.473 0 .806-.156 1.562-.466 2.267a5.747 5.747 0 0 1-1.322 1.87 5.996 5.996 0 0 1-1.974 1.266c-.745.302-1.564.453-2.458.453Zm-10.543 0c-.633 0-1.26-.152-1.88-.454-.609-.303-1.112-.819-1.509-1.55l1.415-.944c.348.466.677.806.987 1.02.31.202.714.303 1.21.303.398 0 .702-.101.913-.303a1.03 1.03 0 0 0 .335-.774.866.866 0 0 0-.167-.53c-.1-.15-.28-.289-.54-.415-.26-.138-.633-.27-1.118-.397-.893-.239-1.582-.554-2.066-.944-.485-.39-.727-1.008-.727-1.852 0-.503.124-.963.373-1.379a2.699 2.699 0 0 1 1.08-1c.471-.253 1.03-.379 1.676-.379.77 0 1.427.164 1.974.492.546.314.974.692 1.284 1.133l-1.434 1.077c-.173-.227-.428-.447-.763-.661-.335-.227-.757-.34-1.266-.34-.31 0-.596.088-.857.264a.841.841 0 0 0-.39.737.97.97 0 0 0 .353.774c.248.19.695.36 1.34.51 1.093.265 1.869.611 2.328 1.04.46.415.69.97.69 1.662 0 .604-.156 1.127-.466 1.568a3.015 3.015 0 0 1-1.192 1.001 3.686 3.686 0 0 1-1.583.34Zm-7.764 0c-.633 0-1.26-.152-1.881-.454-.608-.303-1.111-.819-1.508-1.55l1.415-.944c.347.466.676.806.987 1.02.31.202.714.303 1.21.303.397 0 .701-.101.913-.303.223-.214.335-.472.335-.774a.865.865 0 0 0-.168-.53c-.1-.15-.28-.289-.54-.415-.26-.138-.633-.27-1.117-.397-.894-.239-1.583-.554-2.067-.944-.484-.39-.726-1.008-.726-1.852 0-.503.124-.963.372-1.379a2.699 2.699 0 0 1 1.08-1c.472-.253 1.03-.379 1.676-.379.77 0 1.428.164 1.974.492.546.314.975.692 1.285 1.133l-1.434 1.077c-.174-.227-.428-.447-.763-.661-.336-.227-.758-.34-1.267-.34-.31 0-.596.088-.856.264a.84.84 0 0 0-.391.737c0 .315.118.573.353.774.249.19.695.36 1.341.51 1.093.265 1.868.611 2.328 1.04.46.415.689.97.689 1.662 0 .604-.155 1.127-.466 1.568a3.016 3.016 0 0 1-1.192 1.001 3.686 3.686 0 0 1-1.582.34Zm-8.941 0c-.881 0-1.657-.196-2.328-.587a4.145 4.145 0 0 1-1.564-1.68c-.372-.719-.558-1.556-.558-2.513 0-.97.186-1.814.558-2.532a4.144 4.144 0 0 1 1.564-1.681c.67-.403 1.447-.605 2.328-.605.894 0 1.676.202 2.346.605a4.15 4.15 0 0 1 1.565 1.681c.372.718.558 1.562.558 2.532 0 .088-.006.182-.018.283 0 .088-.007.17-.019.246h-7.113v-1.625h5.772l-.521 1.096c0-.957-.211-1.745-.633-2.362-.422-.617-1.068-.925-1.937-.925-.77 0-1.384.251-1.843.755-.46.491-.69 1.14-.69 1.946v.982c0 .844.224 1.518.671 2.022.447.49 1.068.736 1.862.736.733 0 1.297-.157 1.695-.472a4.723 4.723 0 0 0 1.042-1.171l1.397.888c-.422.793-.968 1.391-1.639 1.794-.658.39-1.49.586-2.495.586Zm-9.272 0c-.932 0-1.739-.202-2.422-.605a4.233 4.233 0 0 1-1.583-1.7c-.372-.718-.558-1.55-.558-2.494 0-.945.186-1.776.558-2.494.373-.718.9-1.278 1.583-1.681.683-.416 1.49-.624 2.421-.624.882 0 1.682.246 2.402.737a4.086 4.086 0 0 1 1.565 1.927l-1.77.756c-.198-.53-.496-.926-.893-1.19a2.318 2.318 0 0 0-1.36-.416c-.745 0-1.365.264-1.862.793-.496.517-.745 1.247-.745 2.192 0 .944.249 1.681.745 2.21.497.516 1.117.775 1.862.775.51 0 .962-.133 1.36-.397.397-.277.695-.68.894-1.21l1.769.757a4.312 4.312 0 0 1-1.583 1.945 4.158 4.158 0 0 1-2.384.718Zm-9.387 0c-.931 0-1.738-.202-2.421-.605a4.233 4.233 0 0 1-1.583-1.7c-.372-.718-.558-1.55-.558-2.494 0-.945.186-1.776.558-2.494.373-.718.9-1.278 1.583-1.681.683-.416 1.49-.624 2.42-.624a4.17 4.17 0 0 1 2.403.737 4.084 4.084 0 0 1 1.564 1.927l-1.769.756c-.199-.53-.496-.926-.894-1.19a2.318 2.318 0 0 0-1.36-.416c-.744 0-1.365.264-1.861.793-.497.517-.745 1.247-.745 2.192 0 .944.248 1.681.745 2.21.496.516 1.117.775 1.862.775.509 0 .962-.133 1.36-.397.397-.277.694-.68.893-1.21l1.77.757a4.311 4.311 0 0 1-1.584 1.945 4.16 4.16 0 0 1-2.383.718Zm-14.019-4.97h6.834v1.777h-6.835V11.74Zm-2.384 4.78 4.525-12.865s.37-.877 1.266-.877c.897 0 1.266.877 1.266.877l4.525 12.865h-1.899l-4.06-11.542h.336l-4.06 11.542h-1.9Z"/>
    <path fill="#285DF5" fill-rule="evenodd" d="M10.01 12.722c.264-.195.896-1.118 2.125-1.153 1.229-.036 2.159.977 2.159 2.182 0 1.206-.967 2.218-2.16 2.218-.79.036-1.51-.372-2.124-1.171-.579-.337-1-.248-1.738-.248-.77 0-1.597-.036-2.124.496-.526.533-1.025.888-1.738.888-1.192 0-2.1-.979-2.159-2.183-.048-.977.86-1.685 1.246-2.165.387-.479.281-3.095-.105-3.406-.386-.312-1.141-1.312-1.141-2.094 0-1.205.967-2.183 2.16-2.183 1.192 0 2.176.94 2.159 2.183-.018 1.242-.948 1.739-1.264 2.236-.316.496-.14 2.963.052 3.318.193.354.474.532.829.87.355.339 1.472.549 2.085.531.604-.017 1.475-.124 1.738-.319Z" clip-rule="evenodd"/>
    <path fill="#285DF5" fill-rule="evenodd" d="M9.22 7.845c.193.266 1.106.904 1.141 2.146.035 1.242-.967 2.183-2.16 2.183-1.192 0-2.194-.977-2.194-2.183-.035-.798.369-1.525 1.159-2.146.334-.586.246-1.011.246-1.757 0-.779.035-1.615-.492-2.147-.526-.532-.878-1.036-.878-1.757 0-1.205.969-2.123 2.16-2.182.966-.048 1.668.87 2.142 1.26s3.062.284 3.37-.107c.308-.39 1.298-1.153 2.072-1.153a2.17 2.17 0 0 1 2.159 2.182c0 1.206-.93 2.2-2.16 2.183-1.228-.018-1.72-.958-2.211-1.278-.492-.32-2.932-.142-3.283.053-.351.196-.527.48-.862.838-.335.359-.542 1.488-.525 2.108.017.61.123 1.49.316 1.757Z" clip-rule="evenodd"/>
    <path fill="#285DF5" fill-rule="evenodd" d="M14.114 7.224c-.263.195-.895 1.118-2.124 1.153-1.229.036-2.16-.977-2.16-2.182s.968-2.218 2.16-2.218c.79-.036 1.51.373 2.124 1.171.58.337 1 .248 1.738.248.771 0 1.598.036 2.125-.496.526-.533 1.025-.888 1.738-.888 1.192 0 2.1.979 2.159 2.183.048.977-.86 1.686-1.246 2.165-.387.479-.281 3.095.105 3.406.386.312 1.141 1.312 1.141 2.094a2.171 2.171 0 0 1-2.16 2.183 2.137 2.137 0 0 1-2.159-2.183c.018-1.242.948-1.739 1.264-2.236.316-.496.14-2.963-.052-3.318-.194-.354-.474-.532-.83-.87-.354-.339-1.47-.549-2.085-.531-.603.017-1.474.124-1.738.319Z" clip-rule="evenodd"/>
    <path fill="#285DF5" fill-rule="evenodd" d="M14.837 12.03c-.193-.266-1.106-.905-1.141-2.147-.035-1.242.967-2.182 2.16-2.182 1.192 0 2.194.977 2.194 2.182.035.799-.37 1.526-1.16 2.147-.333.586-.245 1.011-.245 1.757 0 .779-.035 1.614.492 2.147.526.532.877 1.036.877 1.757 0 1.205-.98 2.27-2.159 2.182-1.648-.124-2.16-1.26-2.16-1.987 0-1.278.6-1.508.933-1.991.332-.483.542-1.488.525-2.108-.017-.61-.123-1.49-.316-1.757Z" clip-rule="evenodd"/>
    <path fill="#285DF5" d="M1.422 11.392a1.43 1.43 0 0 0 1.422-1.438 1.43 1.43 0 0 0-1.422-1.437A1.43 1.43 0 0 0 0 9.954a1.43 1.43 0 0 0 1.422 1.438Zm21.455 0a1.43 1.43 0 0 0 1.422-1.438 1.43 1.43 0 0 0-1.422-1.437 1.43 1.43 0 0 0-1.422 1.437 1.43 1.43 0 0 0 1.422 1.438Z"/>
    <path fill="#285DF5" d="M22.877 11.392a1.43 1.43 0 0 0 1.422-1.438 1.43 1.43 0 0 0-1.422-1.437 1.43 1.43 0 0 0-1.422 1.437 1.43 1.43 0 0 0 1.422 1.438ZM8.272 18.95a1.43 1.43 0 0 0 1.422-1.437 1.43 1.43 0 0 0-1.422-1.437 1.43 1.43 0 0 0-1.422 1.437 1.43 1.43 0 0 0 1.422 1.437Z"/>
  </g>
  <defs>
    <clipPath id="a">
      <path fill="#fff" d="M0 0h116.923v20H0z"/>
    </clipPath>
  </defs>
</svg>
