<svg xmlns="http://www.w3.org/2000/svg" width="16" height="16" fill="none" viewBox="0 0 16 16">
  <path fill="#007EBB" fill-rule="evenodd" d="M1.778 16h12.444c.982 0 1.778-.796 1.778-1.778V1.778C16 .796 15.204 0 14.222 0H1.778C.796 0 0 .796 0 1.778v12.444C0 15.204.796 16 1.778 16Z" clip-rule="evenodd"/>
  <path fill="#fff" fill-rule="evenodd" d="M13.778 13.778h-2.374V9.734c0-1.109-.421-1.728-1.299-1.728-.955 0-1.453.645-1.453 1.728v4.044H6.363V6.075h2.289v1.037S9.34 5.84 10.974 5.84c1.634 0 2.804.998 2.804 3.062v4.877ZM3.634 5.066c-.78 0-1.411-.637-1.411-1.422 0-.785.631-1.421 1.41-1.421.78 0 1.411.636 1.411 1.421s-.631 1.422-1.41 1.422Zm-1.182 8.712h2.386V6.075H2.452v7.703Z" clip-rule="evenodd"/>
</svg>
