<svg xmlns="http://www.w3.org/2000/svg" width="70" height="24" fill="none" viewBox="0 0 70 24">
  <g clip-path="url(#a)">
    <mask id="b" width="70" height="24" x="0" y="0" maskUnits="userSpaceOnUse" style="mask-type:luminance">
      <path fill="#fff" d="M69.618.293H0v23.415h69.618V.293Z"/>
    </mask>
    <g mask="url(#b)">
      <path fill="#4D4E57" d="M29.366 8.143h3.436v6.403H33l5.113-6.403h3.923l-6.06 7.061 6.455 8.288h-4.12L32.976 16.3H32.8v7.192h-3.436V8.143h.003Zm14.829 0h9.759v2.98H47.63v3.266h5.882v2.808H47.63v3.311h6.543v2.98H44.19V8.144h.004Zm16.523 9.407L55.23 8.143h3.989l3.172 6.138h.132l3.127-6.138h3.965l-5.442 9.407v5.942h-3.459V17.55h.004ZM29.056 5.45a1.79 1.79 0 0 1-.634-.363l.21-.262a2.07 2.07 0 0 0 .888.386 1.762 1.762 0 0 0 .69-.016c.11-.03.204-.069.283-.115a.466.466 0 0 0 .237-.418.398.398 0 0 0-.089-.272.797.797 0 0 0-.236-.177 1.52 1.52 0 0 0-.34-.12c-.127-.03-.252-.066-.384-.099-.154-.04-.302-.075-.44-.118a1.333 1.333 0 0 1-.359-.16.744.744 0 0 1-.24-.245.652.652 0 0 1-.089-.35.822.822 0 0 1 .322-.651 1.15 1.15 0 0 1 .369-.184 1.57 1.57 0 0 1 .48-.065c.214 0 .434.032.654.104.22.072.415.164.579.285l-.178.291a1.965 1.965 0 0 0-1.082-.334c-.121 0-.23.014-.325.043a.725.725 0 0 0-.243.111.547.547 0 0 0-.155.16.404.404 0 0 0-.006.4.431.431 0 0 0 .157.147c.076.046.172.092.29.131.118.042.263.085.434.128.177.039.342.078.493.127.151.05.283.105.395.177.112.072.2.157.263.262a.694.694 0 0 1 .098.38.823.823 0 0 1-.355.693 1.424 1.424 0 0 1-.4.193 1.807 1.807 0 0 1-.517.069c-.26 0-.516-.043-.766-.128l-.003-.01Zm3.348-3.187h.28c.016.05.029.121.042.213.01.095.02.19.026.291a1.25 1.25 0 0 1 .447-.399c.185-.098.389-.147.619-.147h.013c.26 0 .473.055.638.163a.875.875 0 0 1 .348.498c.109-.206.263-.367.457-.485.198-.117.421-.176.68-.176h.014c.349 0 .612.098.79.3.177.204.262.495.262.874v2.14h-.352v-2.09a1.27 1.27 0 0 0-.049-.37.767.767 0 0 0-.141-.278.606.606 0 0 0-.24-.17.89.89 0 0 0-.336-.056h-.02c-.144 0-.276.023-.4.072a.912.912 0 0 0-.316.2.987.987 0 0 0-.2.32c-.05.128-.076.275-.076.439v1.93h-.355v-2.09c0-.138-.017-.263-.043-.37a.676.676 0 0 0-.142-.279.641.641 0 0 0-.243-.17.914.914 0 0 0-.342-.055h-.02c-.144 0-.276.022-.398.072a.928.928 0 0 0-.312.2.943.943 0 0 0-.204.32c-.05.127-.072.275-.072.438v1.93h-.355V2.264Zm6.625 3.246a1.08 1.08 0 0 1-.368-.203.912.912 0 0 1-.323-.713V4.58c0-.344.165-.603.494-.78.328-.176.822-.264 1.48-.264h.41V3.25a.602.602 0 0 0-.233-.5c-.155-.122-.368-.18-.638-.18h-.013c-.184 0-.382.029-.582.091-.204.059-.392.15-.563.268l-.177-.29a3.11 3.11 0 0 1 .654-.315c.22-.075.45-.111.694-.111.178 0 .339.023.487.065.148.043.276.112.381.197a.94.94 0 0 1 .349.759v1.724c0 .092.01.193.032.298.024.105.05.2.08.281h-.362a.873.873 0 0 1-.063-.203 3.421 3.421 0 0 1-.04-.232 1.798 1.798 0 0 1-1.226.481c-.17 0-.332-.023-.473-.072V5.51Zm1.15-.422c.208-.095.389-.223.543-.386v-.838h-.329c-.578 0-1.002.059-1.279.177-.276.117-.414.297-.414.54v.013a.568.568 0 0 0 .227.464.725.725 0 0 0 .256.128c.1.03.21.042.333.042.236 0 .457-.045.664-.14ZM42.7 2.263h.279c.023.065.04.15.049.252.01.101.023.203.026.3a1.36 1.36 0 0 1 .477-.402 1.42 1.42 0 0 1 .661-.15h.069v.37a.175.175 0 0 0-.066-.017c-.026 0-.049-.003-.065-.003-.155 0-.3.026-.434.075a.883.883 0 0 0-.34.216.98.98 0 0 0-.22.344 1.167 1.167 0 0 0-.082.454v1.833H42.7V2.263Zm3.471 3.242a.753.753 0 0 1-.283-.15.626.626 0 0 1-.18-.265 1.065 1.065 0 0 1-.063-.39V2.6h-.46v-.246c.062-.016.138-.032.22-.045a2.21 2.21 0 0 1 .24-.033v-.763L46 1.464v.805h1.157v.334H46v2.045c0 .206.053.353.154.438.106.089.25.131.441.131h.151c.06 0 .119-.006.178-.016a2.26 2.26 0 0 0 .168-.026 1.14 1.14 0 0 0 .138-.036v.32a1.15 1.15 0 0 1-.316.076 2.991 2.991 0 0 1-.365.026 1.29 1.29 0 0 1-.375-.05l-.003-.006Zm2.325-3.242h.28a4.127 4.127 0 0 1 .081.641 1.43 1.43 0 0 1 .536-.5c.224-.121.47-.18.75-.18h.02c.236 0 .45.039.644.117.194.082.362.193.5.34.138.148.25.321.332.524.082.2.122.422.122.668v.049c0 .242-.043.464-.122.667a1.625 1.625 0 0 1-.332.52 1.397 1.397 0 0 1-.5.34 1.699 1.699 0 0 1-.644.122h-.02a1.517 1.517 0 0 1-1.289-.674V6.79h-.355V2.263h-.003Zm1.64 2.958c.184 0 .352-.033.507-.095a1.164 1.164 0 0 0 .654-.67c.06-.161.092-.338.092-.534v-.04c0-.196-.03-.376-.092-.536a1.162 1.162 0 0 0-.654-.674 1.316 1.316 0 0 0-.507-.095h-.026c-.187 0-.355.033-.51.095a1.111 1.111 0 0 0-.394.268 1.225 1.225 0 0 0-.26.41 1.428 1.428 0 0 0-.095.533v.039c0 .196.03.376.092.533a1.139 1.139 0 0 0 .658.67c.154.063.322.096.51.096h.025Zm3.045-4.215h.355v1.84c.138-.194.32-.348.54-.456.22-.108.473-.166.756-.166.378 0 .67.104.871.314.2.21.303.51.303.906v2.094h-.352V3.5c0-.308-.08-.537-.234-.69-.154-.155-.384-.233-.684-.233-.177 0-.338.026-.486.078a1.105 1.105 0 0 0-.378.22.983.983 0 0 0-.247.347 1.11 1.11 0 0 0-.089.445V5.54h-.355V1.006Zm5.162 4.444a1.577 1.577 0 0 1-.513-.34 1.53 1.53 0 0 1-.335-.52 1.812 1.812 0 0 1-.118-.668v-.05c0-.238.039-.46.118-.663.082-.203.194-.38.335-.52.145-.145.316-.26.513-.34.197-.083.418-.122.658-.122h.026c.237 0 .454.04.654.121.201.082.372.196.517.34.144.144.256.318.338.52.082.204.122.426.122.665v.049c0 .242-.04.465-.122.667a1.578 1.578 0 0 1-.338.52 1.557 1.557 0 0 1-.517.341c-.2.082-.417.121-.654.121h-.026c-.24 0-.46-.04-.658-.121Zm.68-.223c.181 0 .35-.032.507-.098.158-.065.29-.153.401-.271a1.2 1.2 0 0 0 .26-.413c.06-.16.092-.333.092-.526v-.04c0-.193-.03-.37-.095-.53a1.252 1.252 0 0 0-.26-.412 1.166 1.166 0 0 0-.395-.268 1.295 1.295 0 0 0-.51-.098h-.026c-.18 0-.348.032-.503.098a1.2 1.2 0 0 0-.397.268 1.209 1.209 0 0 0-.26.412c-.063.16-.092.337-.092.53v.04c0 .193.03.37.092.526a1.176 1.176 0 0 0 .654.684c.158.066.326.099.506.099h.027Zm3.049-2.964h.28c.016.065.033.15.042.252.01.101.024.206.033.314.128-.19.3-.337.52-.449.22-.108.463-.163.726-.163h.02c.405 0 .707.104.907.314.201.21.3.51.3.906v2.094h-.352V3.493c0-.298-.072-.527-.22-.687-.145-.16-.375-.24-.684-.24h-.033c-.175 0-.332.027-.477.08a1.17 1.17 0 0 0-.375.215.997.997 0 0 0-.243.34 1.134 1.134 0 0 0-.089.459v1.868h-.355V2.263Zm5.148 3.19a1.457 1.457 0 0 1-.506-.334 1.548 1.548 0 0 1-.332-.504 1.657 1.657 0 0 1-.118-.634v-.089c0-.242.04-.468.118-.67a1.63 1.63 0 0 1 .336-.527 1.58 1.58 0 0 1 .51-.347 1.66 1.66 0 0 1 .64-.124h.007c.22 0 .421.036.605.11a1.371 1.371 0 0 1 .783.799c.072.187.111.393.111.619v.297h-2.732v.014c.01.17.046.327.112.467.066.141.15.262.263.364a1.32 1.32 0 0 0 .878.327h.006c.237 0 .45-.05.645-.147a1.32 1.32 0 0 0 .464-.38l.282.183c-.079.115-.17.213-.276.298a1.64 1.64 0 0 1-.342.216c-.122.059-.25.105-.382.137a1.877 1.877 0 0 1-1.068-.074h-.003Zm1.802-1.734v-.02a1.307 1.307 0 0 0-.098-.461 1.029 1.029 0 0 0-.247-.35 1.204 1.204 0 0 0-.819-.308h-.006c-.164 0-.315.026-.457.082a1.124 1.124 0 0 0-.621.596 1.59 1.59 0 0 0-.132.46h2.38ZM1.26 12c0-2.038.588-4.014 1.706-5.713a.626.626 0 0 0-.181-.867.632.632 0 0 0-.871.18A11.609 11.609 0 0 0 0 12c0 1.388.24 2.742.717 4.032a.628.628 0 0 0 .809.372.627.627 0 0 0 .375-.804 10.379 10.379 0 0 1-.638-3.6h-.004Zm17.528 7.771a10.518 10.518 0 0 1-7.023 2.68c-1.358 0-2.68-.255-3.93-.756a.631.631 0 0 0-.818.347.623.623 0 0 0 .348.815c1.4.563 2.88.847 4.4.847 2.91 0 5.704-1.066 7.865-3.003a.62.62 0 0 0 .046-.884.628.628 0 0 0-.888-.046Zm4.11-8.398a.627.627 0 0 0-.628.628c0 .124 0 .252-.007.376a10.42 10.42 0 0 1-1.473 4.977.627.627 0 0 0 .54.949.633.633 0 0 0 .542-.305 11.655 11.655 0 0 0 1.65-5.575c.004-.14.007-.278.007-.419a.63.63 0 0 0-.628-.628l-.003-.003Zm-6.5-8.756c2.9 1.42 5.017 4.145 5.659 7.286a.625.625 0 0 0 .74.488.622.622 0 0 0 .49-.74c-.72-3.517-3.091-6.567-6.337-8.16a.627.627 0 1 0-.555 1.122l.003.004ZM4.607 4.138a.64.64 0 0 0 .404-.147 10.542 10.542 0 0 1 6.75-2.445c.8 0 1.598.089 2.368.266a.629.629 0 1 0 .283-1.224 11.986 11.986 0 0 0-2.65-.298 11.81 11.81 0 0 0-7.563 2.739.625.625 0 0 0 .408 1.106v.003Z"/>
      <path fill="#4D4E57" d="M11.764 3.202c-4.876 0-8.841 3.946-8.841 8.799 0 .994.164 1.973.493 2.902a.63.63 0 0 0 1.19-.412 7.517 7.517 0 0 1-.42-2.49c0-4.16 3.4-7.546 7.582-7.546s7.582 3.384 7.582 7.546c0 4.162-3.4 7.545-7.582 7.545a7.571 7.571 0 0 1-2.999-.612.627.627 0 1 0-.5 1.152 8.839 8.839 0 0 0 3.499.716c4.876 0 8.841-3.946 8.841-8.798s-3.965-8.799-8.841-8.799l-.004-.003Z"/>
      <path fill="#4D4E57" d="m6.162 17.216 2.548-1.812a4.54 4.54 0 0 0 2.795 1.286c.138.013.273.02.408.02 2.334 0 4.33-1.78 4.54-4.137a.63.63 0 0 0-1.255-.11c-.162 1.805-1.77 3.14-3.585 2.98a3.285 3.285 0 0 1-2.239-1.165 3.252 3.252 0 0 1-.756-2.398c.161-1.806 1.77-3.141 3.584-2.981a3.28 3.28 0 0 1 2.137 1.047l-2.637 2.137a.625.625 0 0 0-.092.88c.22.268.615.307.885.091l3.11-2.52a.626.626 0 0 0 .132-.827A4.554 4.554 0 0 0 12.31 7.65c-2.503-.222-4.725 1.626-4.949 4.12a4.495 4.495 0 0 0 .579 2.643L2.66 18.17a.623.623 0 0 0-.118.913l1.268 1.511a.633.633 0 0 0 .888.079.626.626 0 0 0 .079-.884l-.832-.991 1.19-.848.536.756a.63.63 0 0 0 1.03-.723l-.54-.766Z"/>
    </g>
  </g>
  <defs>
    <clipPath id="a">
      <path fill="#fff" d="M0 0h70v24H0z"/>
    </clipPath>
  </defs>
</svg>
