<svg width="512" height="512" viewBox="0 0 512 512" fill="none" xmlns="http://www.w3.org/2000/svg">
<path fill-rule="evenodd" clip-rule="evenodd" d="M210.864 314.245C216.413 310.176 229.731 290.939 255.627 290.199C281.523 289.459 301.13 310.571 301.13 335.702C301.13 360.833 280.758 381.945 255.627 381.945C238.98 382.685 223.812 374.176 210.864 357.529C198.656 350.5 189.792 352.349 174.24 352.349C158.002 352.349 140.58 351.608 129.479 362.707C118.378 373.806 107.872 381.205 92.8524 381.205C67.7219 381.205 48.5855 360.802 47.3495 335.702C46.3466 315.334 65.4767 300.557 73.6154 290.569C81.7541 280.581 79.5345 226.036 71.3958 219.54C63.257 213.045 47.3495 192.189 47.3495 175.887C47.3495 150.756 67.7219 130.384 92.8524 130.384C117.983 130.384 138.725 149.991 138.355 175.887C137.985 201.783 118.378 212.141 111.719 222.5C105.061 232.858 108.76 284.28 112.829 291.679C116.899 299.078 122.818 302.777 130.292 309.834C137.767 316.891 161.307 321.264 174.24 320.904C186.955 320.551 205.315 318.315 210.864 314.245Z" fill="#035FFE"/>
<path fill-rule="evenodd" clip-rule="evenodd" d="M194.264 212.552C198.334 218.102 217.571 231.42 218.311 257.315C219.051 283.211 197.938 302.818 172.808 302.818C147.677 302.818 126.565 282.446 126.565 257.315C125.825 240.668 134.334 225.5 150.981 212.552C158.01 200.344 156.16 191.481 156.16 175.928C156.16 159.691 156.902 142.268 145.803 131.168C134.704 120.067 127.305 109.561 127.305 94.5409C127.305 69.4103 147.708 50.274 172.808 49.038C193.176 48.035 207.952 67.1651 217.941 75.3039C227.929 83.4426 282.474 81.223 288.97 73.0842C295.465 64.9455 316.321 49.038 332.623 49.038C357.753 49.038 378.126 69.4103 378.126 94.5409C378.126 119.671 358.519 140.414 332.623 140.044C306.727 139.674 296.368 120.067 286.01 113.408C275.652 106.749 224.23 110.448 216.831 114.518C209.432 118.587 205.733 124.506 198.676 131.981C191.619 139.455 187.246 162.995 187.605 175.928C187.959 188.644 190.195 207.003 194.264 212.552Z" fill="#035FFE"/>
<path fill-rule="evenodd" clip-rule="evenodd" d="M297.433 199.611C291.884 203.68 278.566 222.917 252.67 223.657C226.774 224.397 207.167 203.285 207.167 178.154C207.167 153.024 227.54 131.912 252.67 131.912C269.318 131.172 284.485 139.68 297.433 156.328C309.641 163.357 318.505 161.507 334.058 161.507C350.295 161.507 367.718 162.249 378.818 151.149C389.919 140.05 400.425 132.651 415.445 132.651C440.576 132.651 459.712 153.054 460.948 178.154C461.951 198.523 442.821 213.299 434.682 223.287C426.543 233.276 428.763 287.821 436.902 294.316C445.04 300.812 460.948 321.667 460.948 337.969C460.948 363.1 440.575 383.472 415.445 383.472C390.314 383.472 369.572 363.865 369.942 337.969C370.312 312.073 389.919 301.715 396.578 291.357C403.237 280.998 399.537 229.576 395.468 222.177C391.399 214.779 385.48 211.079 378.005 204.022C370.53 196.965 346.991 192.593 334.058 192.952C321.342 193.305 302.983 195.542 297.433 199.611Z" fill="#035FFE"/>
<path fill-rule="evenodd" clip-rule="evenodd" d="M312.62 299.821C308.551 294.272 289.314 280.954 288.574 255.058C287.834 229.162 308.946 209.555 334.077 209.555C359.207 209.555 380.32 229.927 380.32 255.058C381.059 271.705 372.551 286.873 355.903 299.821C348.874 312.029 350.724 320.893 350.724 336.445C350.724 352.683 349.982 370.105 361.082 381.206C372.181 392.306 379.58 402.813 379.58 417.832C379.58 442.963 358.907 465.185 334.077 463.335C299.347 460.748 288.574 437.069 288.574 421.902C288.574 395.266 301.196 390.457 308.209 380.393C315.222 370.328 319.638 349.378 319.279 336.445C318.926 323.73 316.689 305.37 312.62 299.821Z" fill="#035FFE"/>
<ellipse cx="29.9653" cy="256.538" rx="29.9653" ry="29.9653" fill="#035FFE"/>
<ellipse cx="482.035" cy="256.538" rx="29.9653" ry="29.9653" fill="#035FFE"/>
<ellipse cx="482.035" cy="256.538" rx="29.9653" ry="29.9653" fill="#035FFE"/>
<ellipse cx="174.243" cy="414.133" rx="29.9653" ry="29.9653" fill="#035FFE"/>
</svg>
