<?xml version="1.0" encoding="UTF-8"?>
<svg id="Layer_1" data-name="Layer 1" xmlns="http://www.w3.org/2000/svg" viewBox="0 0 218.03 27.66">
  <defs>
    <style>
      .cls-1 {
        fill: #4D4E57;
      }
    </style>
  </defs>
  <g>
    <path class="cls-1" d="M0,21.96L4.8.3h13.8l-.78,3.48h-9.66l-1.14,5.16h7.23l-.78,3.48h-7.23l-2.1,9.54H0Z"/>
    <path class="cls-1" d="M25.71,21.96l.06-1.35c-1.74,1.02-3.27,1.65-5.22,1.65-2.82,0-3.78-2.01-3.33-4.14.81-3.54,4.08-5.4,10.32-6.12l.27-1.32c.27-1.2-.54-1.86-1.86-1.86-1.74,0-2.91.93-3.84,1.92l-2.01-1.83c1.35-1.65,4.2-2.91,6.45-2.85,4.2.09,5.67,1.62,4.62,6.3l-1.62,7.35c-.18.78-.3,1.56-.21,2.25h-3.63ZM26.97,14.49c-2.58.48-5.43.99-5.91,3.18-.27,1.17.33,1.83,1.38,1.83,1.17,0,2.85-.99,3.78-1.65l.75-3.36Z"/>
    <path class="cls-1" d="M34.02,21.96l3.45-15.6h3.42l-.57,2.67h.06c1.29-1.86,2.79-2.91,5.01-2.97l-.87,3.93c-.15-.03-.36-.03-.63-.03-1.86,0-3.96,2.13-4.05,2.52l-2.1,9.48h-3.72Z"/>
    <path class="cls-1" d="M49.2,6.36h3.57l-.3,1.44c1.29-1.05,2.67-1.74,4.35-1.74,4.14,0,5.43,3.66,4.38,8.52-.87,3.84-3.93,7.68-7.95,7.68-1.26,0-2.88-.75-3.39-1.74h-.06l-1.59,7.14h-3.72l4.71-21.3ZM50.37,17.94c.6.69,1.38,1.32,2.58,1.32,2.22,0,3.87-1.8,4.62-5.1.72-3.3-.15-5.1-2.37-5.1-1.59,0-2.25.78-3.18,1.38l-1.65,7.5Z"/>
    <path class="cls-1" d="M73.02,6.06c4.23,0,6.09,3.15,5.01,8.1-1.11,4.95-4.35,8.1-8.58,8.1s-6.09-3.15-4.98-8.1c1.08-4.95,4.32-8.1,8.55-8.1ZM72.36,9.06c-2.07,0-3.42,1.62-4.17,5.1-.78,3.48-.15,5.1,1.92,5.1s3.42-1.62,4.2-5.1c.75-3.48.12-5.1-1.95-5.1Z"/>
    <path class="cls-1" d="M84.54,21.96h-3.72l3.45-15.6h3.72l-3.45,15.6ZM84.93,3.48l.75-3.48h3.72l-.75,3.48h-3.72Z"/>
    <path class="cls-1" d="M90.27,21.96l3.45-15.6h3.42l-.36,1.68c1.59-.96,3.39-1.98,5.22-1.98,3.12,0,4.17,2.04,3.48,5.22l-2.37,10.68h-3.72l2.25-10.14c.45-2.1-.06-2.76-1.32-2.76-1.62,0-3.06.93-3.84,1.65l-2.49,11.25h-3.72Z"/>
    <path class="cls-1" d="M112.5,6.36l1.14-5.16h3.72l-1.14,5.16h3.06l-.66,3h-3.06l-1.95,8.82c-.18.84.18,1.08,1.11,1.08.57,0,1.2-.18,1.77-.3l-.66,3.06c-1.05.12-1.98.24-3,.24-2.76,0-3.54-1.38-3.06-3.6l2.07-9.3h-2.16l.66-3h2.16Z"/>
    <path class="cls-1" d="M124.05,14.76c-.66,3.24.51,4.5,2.25,4.5s2.73-.78,3.9-1.86l2.31,1.68c-1.92,2.22-4.23,3.18-7.23,3.18-4.05,0-5.91-3.15-4.8-8.1,1.08-4.95,4.32-8.1,8.55-8.1,4.11-.03,5.61,3.42,4.8,7.17l-.36,1.53h-9.42ZM130.62,12.24c.42-2.16-.45-3.42-2.25-3.42s-3.21,1.26-3.75,3.42h6Z"/>
    <path class="cls-1" d="M152.31.3h7.17c5.73,0,9,3.18,7.32,10.83-1.74,7.65-6.39,10.83-12.12,10.83h-7.17L152.31.3ZM152.43,18.48h2.76c4.74,0,6.6-3.48,7.47-7.35.87-3.87.51-7.35-4.23-7.35h-2.76l-3.24,14.7Z"/>
    <path class="cls-1" d="M176.55,21.96l.06-1.35c-1.74,1.02-3.27,1.65-5.22,1.65-2.82,0-3.78-2.01-3.33-4.14.81-3.54,4.08-5.4,10.32-6.12l.27-1.32c.27-1.2-.54-1.86-1.86-1.86-1.74,0-2.91.93-3.84,1.92l-2.01-1.83c1.35-1.65,4.2-2.91,6.45-2.85,4.2.09,5.67,1.62,4.62,6.3l-1.62,7.35c-.18.78-.3,1.56-.21,2.25h-3.63ZM177.81,14.49c-2.58.48-5.43.99-5.91,3.18-.27,1.17.33,1.83,1.38,1.83,1.17,0,2.85-.99,3.78-1.65l.75-3.36Z"/>
    <path class="cls-1" d="M189.15,6.36l1.14-5.16h3.72l-1.14,5.16h3.06l-.66,3h-3.06l-1.95,8.82c-.18.84.18,1.08,1.11,1.08.57,0,1.2-.18,1.77-.3l-.66,3.06c-1.05.12-1.98.24-3,.24-2.76,0-3.54-1.38-3.06-3.6l2.07-9.3h-2.16l.66-3h2.16Z"/>
    <path class="cls-1" d="M204.54,21.96l.06-1.35c-1.74,1.02-3.27,1.65-5.22,1.65-2.82,0-3.78-2.01-3.33-4.14.81-3.54,4.08-5.4,10.32-6.12l.27-1.32c.27-1.2-.54-1.86-1.86-1.86-1.74,0-2.91.93-3.84,1.92l-2.01-1.83c1.35-1.65,4.2-2.91,6.45-2.85,4.2.09,5.67,1.62,4.62,6.3l-1.62,7.35c-.18.78-.3,1.56-.21,2.25h-3.63ZM205.8,14.49c-2.58.48-5.43.99-5.91,3.18-.27,1.17.33,1.83,1.38,1.83,1.17,0,2.85-.99,3.78-1.65l.75-3.36Z"/>
  </g>
  <path class="cls-1" d="M215.47,1.6c1.43,0,2.56,1.16,2.56,2.61s-1.14,2.62-2.57,2.62-2.59-1.15-2.59-2.62,1.16-2.61,2.59-2.61h.01ZM215.46,2.01c-1.15,0-2.09.99-2.09,2.2s.94,2.21,2.1,2.21c1.16.01,2.09-.97,2.09-2.2s-.93-2.21-2.09-2.21h-.01ZM214.97,5.73h-.46v-2.91c.24-.03.48-.07.82-.07.44,0,.73.09.9.22.17.13.27.32.27.6,0,.38-.25.61-.57.71v.02c.26.05.43.28.49.71.07.45.14.63.18.72h-.49c-.07-.09-.14-.36-.2-.74-.07-.37-.25-.51-.63-.51h-.33v1.25ZM214.97,4.12h.34c.38,0,.71-.14.71-.5,0-.26-.18-.51-.71-.51-.15,0-.25.01-.34.02v.99Z"/>
</svg>