<svg xmlns="http://www.w3.org/2000/svg" width="92" height="24" fill="none" viewBox="0 0 92 24">
  <path fill="#4D4E57" fill-rule="evenodd" d="M81.645 3c-4.893 0-8.858 3.877-8.858 8.66 0 4.782 3.965 8.656 8.859 8.656 4.893 0 8.862-3.873 8.862-8.657 0-4.782-3.97-8.659-8.863-8.659Zm-2.77 4.007c.538 0 .971.424.971.946a.957.957 0 0 1-.971.945.953.953 0 0 1-.963-.945c0-.522.429-.946.963-.946Zm0 2.504c.538 0 .972.422.972.944a.959.959 0 0 1-.972.945.954.954 0 0 1-.963-.945c0-.522.43-.944.963-.944Zm0 2.503c.539 0 .972.423.972.945a.958.958 0 0 1-.971.945.954.954 0 0 1-.963-.945c0-.522.429-.945.962-.945Zm.001 4.39a.95.95 0 0 1-.963-.94c0-.523.43-.947.963-.947a.96.96 0 0 1 .972.946c0 .522-.433.94-.972.94Zm2.673-9.397c.534 0 .967.424.967.946a.956.956 0 0 1-.966.945.956.956 0 0 1-.967-.945c0-.522.433-.946.966-.946Zm0 2.504c.534 0 .967.422.967.944a.957.957 0 0 1-.966.945.957.957 0 0 1-.966-.945c0-.522.432-.944.966-.944Zm0 2.503c.534 0 .967.423.968.945a.957.957 0 0 1-.966.945.957.957 0 0 1-.967-.945c0-.522.433-.945.966-.945Zm.002 4.39a.953.953 0 0 1-.967-.94c0-.523.433-.947.966-.947.534 0 .967.424.967.946s-.433.94-.966.94Zm2.673-9.397c.533 0 .966.424.967.946a.957.957 0 0 1-.966.945.956.956 0 0 1-.967-.945c0-.522.432-.946.966-.946Zm0 2.504c.534 0 .967.422.967.944a.957.957 0 0 1-.966.945.957.957 0 0 1-.967-.945c0-.522.433-.944.967-.944Zm0 2.503c.534 0 .967.423.967.945a.957.957 0 0 1-.966.945.958.958 0 0 1-.967-.945c0-.522.433-.945.967-.945Zm.001 4.39a.953.953 0 0 1-.966-.94c0-.523.433-.947.966-.947.534 0 .967.424.967.946s-.433.94-.967.94ZM42.4 14.53c-.178-.414-.187-1.734-.243-3.936h-1.352V8.695h1.352V7.078h2.627v1.617h4.151v1.899h-4.15v2.38c-.008.202.005.386.037.533.033.152.132.274.3.375.084.035.22.059.414.07.19.012.383.01.578-.006.2-.016.342-.045.442-.094a.669.669 0 0 0 .342-.477c.033-.202.044-.437.034-.721h2.3c.009.308.005.63-.011.96a2.39 2.39 0 0 1-.258.97c-1.003 1.593-6.017 1.543-6.563-.055Zm17.007-2.385v.446H52.92c-.013.272.012.544.06.814.054.271.186.47.407.598.103.048.301.088.599.11a13.508 13.508 0 0 0 1.959-.016c.3-.027.503-.07.613-.118a.515.515 0 0 0 .284-.203.798.798 0 0 0 .084-.407h2.494c-.143 2.057-1.726 2.435-5.152 2.363-1.141-.028-3.016-.146-3.588-1.247-.14-.238-.228-.558-.286-.992a10.938 10.938 0 0 1-.024-2.842c.059-.439.149-.766.27-.979.263-.41.585-.702.962-.871a3.38 3.38 0 0 1 1.096-.294c.351-.03.62-.04.804-.032h2.887c.18-.002.41.015.689.054.283.038.571.118.868.238.302.118.572.297.814.537.21.229.364.51.456.832.092.323.15.662.17 1.013.018.35.026.684.022.996Zm-2.59-1.046a1.244 1.244 0 0 0-.077-.507c-.055-.154-.197-.266-.413-.334a3.574 3.574 0 0 0-.567-.053 18.93 18.93 0 0 0-.954-.027c-.35-.003-.66.002-.942.014-.276.014-.449.035-.518.066-.238.135-.375.27-.403.411a1.216 1.216 0 0 0-.024.43h3.899Zm7.535 2.567a36.322 36.322 0 0 0 1.42.017c.333-.004.633-.015.904-.035.278-.02.46-.06.55-.107a.758.758 0 0 0 .265-.302c.052-.116.088-.292.099-.529h2.626c.01.355-.013.725-.077 1.117a1.996 1.996 0 0 1-.494 1.038c-.37.37-.79.618-1.262.736-.471.124-1.05.175-1.73.167H65c-.445.008-.903 0-1.382-.027a3.862 3.862 0 0 1-1.35-.332c-.425-.19-.784-.526-1.075-1.001-.14-.246-.246-.574-.326-.983a7.664 7.664 0 0 1-.135-1.315c-.009-.466.02-.913.09-1.334.07-.424.182-.771.342-1.045.258-.424.562-.724.908-.898a3.097 3.097 0 0 1 1.198-.306c.46-.03.985-.04 1.573-.032h1.9c.378-.006.763.016 1.164.061.397.046.772.15 1.13.316.352.168.645.427.882.783.161.274.253.558.275.847.023.293.03.591.022.897h-2.614a1.048 1.048 0 0 0-.101-.474c-.075-.164-.262-.288-.562-.38a3.96 3.96 0 0 0-.564-.043c-.27-.008-.559-.01-.871-.01-.314.002-.58.005-.8.008-.227.007-.342.009-.352.009-.33.007-.568.106-.71.293-.147.19-.219.418-.216.686l-.012.204c-.007.13-.01.25-.012.371a10.444 10.444 0 0 0 .024.636c-.003.289.07.525.216.699.142.175.38.264.71.268Zm-53.054-.105c0 .399-.115.772-.342 1.11a2.662 2.662 0 0 1-.829.804c-.325.195-.61.293-.859.293H3.636a2.15 2.15 0 0 1-1.232-.36 2.505 2.505 0 0 1-.828-.894c-.192-.358-.287-.701-.287-1.03V10.76c0-.295.064-.58.193-.849a2.633 2.633 0 0 1 1.223-1.22c.254-.123.5-.182.73-.182h5.548c.247 0 .554.08.92.241.364.163.688.426.97.79.283.366.425.836.425 1.408v2.614Zm-2.108-.684v-1.493a1.1 1.1 0 0 0-.32-.802c-.215-.219-.555-.328-1.017-.328H4.606c-.127 0-.282.047-.471.141a1.68 1.68 0 0 0-.485.376.741.741 0 0 0-.204.495v1.424c.007.342.099.627.276.861.18.23.448.35.802.35h3.614c.293 0 .543-.078.746-.235.205-.16.306-.423.306-.79Zm15.728 2.888h-2.091v-4.43a.234.234 0 0 0-.096-.191c-.059-.057-.116-.085-.172-.085a.32.32 0 0 0-.312.196l-2.51 4.51h-1.98l-2.584-4.532a.33.33 0 0 0-.086-.148.396.396 0 0 0-.143-.095.264.264 0 0 0-.11-.036c-.065 0-.122.034-.172.1a.35.35 0 0 0-.077.21v4.501h-2.05v-5.503c0-.265.067-.511.198-.734.132-.225.297-.414.494-.568.2-.153.409-.27.633-.354.222-.087.414-.13.58-.13.472 0 .866.12 1.181.359.319.238.653.643 1 1.22l2.07 3.688 2.131-3.696c.278-.513.58-.901.905-1.167.327-.27.73-.403 1.212-.403.282 0 .547.054.792.165.25.108.464.258.642.443.179.186.313.39.404.613.093.223.14.439.14.649v5.418Zm11.224-1.653c0 .2-.065.442-.194.72-.127.277-.392.498-.682.71-.38.138-.567.233-.9.233-.455 0-.818-.018-1.04-.14-.22-.123-.57-.302-.819-.632l-3.48-4.113a1.21 1.21 0 0 0-.266-.274.428.428 0 0 0-.241-.061.32.32 0 0 0-.194.071.222.222 0 0 0-.102.197l-.002 4.952h-2.03l.003-5.727c0-.097.03-.23.095-.397a1.918 1.918 0 0 1 .92-.984c.25-.128.551-.19.9-.19.444 0 .79.074 1.042.22.25.142.455.3.61.47l3.504 4.04c.11.145.204.244.279.284a.62.62 0 0 0 .272.06c.118 0 .192-.037.22-.102a.843.843 0 0 0 .045-.301l.002-4.67h2.08l-.023 5.634Z" clip-rule="evenodd"/>
  <path fill="#4D4E57" d="M39.628 8.508h-2.06v7.255h2.06V8.508Z"/>
</svg>
